<svg id="visual" viewBox="0 0 900 600" width="900" height="600" xmlns="http://www.w3.org/2000/svg" xmlns:xlink="http://www.w3.org/1999/xlink" version="1.1">
    <path d="M0 360L21.5 361.2C43 362.3 86 364.7 128.8 374C171.7 383.3 214.3 399.7 257.2 401.5C300 403.3 343 390.7 385.8 391.2C428.7 391.7 471.3 405.3 514.2 405C557 404.7 600 390.3 642.8 378.8C685.7 367.3 728.3 358.7 771.2 363.3C814 368 857 386 878.5 395L900 404L900 601L878.5 601C857 601 814 601 771.2 601C728.3 601 685.7 601 642.8 601C600 601 557 601 514.2 601C471.3 601 428.7 601 385.8 601C343 601 300 601 257.2 601C214.3 601 171.7 601 128.8 601C86 601 43 601 21.5 601L0 601Z" fill="#9932cc"></path>
    <path d="M0 417L21.5 416.8C43 416.7 86 416.3 128.8 423.5C171.7 430.7 214.3 445.3 257.2 442.3C300 439.3 343 418.7 385.8 410C428.7 401.3 471.3 404.7 514.2 407C557 409.3 600 410.7 642.8 414.7C685.7 418.7 728.3 425.3 771.2 431.5C814 437.7 857 443.3 878.5 446.2L900 449L900 601L878.5 601C857 601 814 601 771.2 601C728.3 601 685.7 601 642.8 601C600 601 557 601 514.2 601C471.3 601 428.7 601 385.8 601C343 601 300 601 257.2 601C214.3 601 171.7 601 128.8 601C86 601 43 601 21.5 601L0 601Z" fill="#7b24bc"></path>
    <path d="M0 442L21.5 450.2C43 458.3 86 474.7 128.8 482.7C171.7 490.7 214.3 490.3 257.2 489.3C300 488.3 343 486.7 385.8 484.2C428.7 481.7 471.3 478.3 514.2 478.3C557 478.3 600 481.7 642.8 483.2C685.7 484.7 728.3 484.3 771.2 478C814 471.7 857 459.3 878.5 453.2L900 447L900 601L878.5 601C857 601 814 601 771.2 601C728.3 601 685.7 601 642.8 601C600 601 557 601 514.2 601C471.3 601 428.7 601 385.8 601C343 601 300 601 257.2 601C214.3 601 171.7 601 128.8 601C86 601 43 601 21.5 601L0 601Z" fill="#5d16ac"></path>
    <path d="M0 513L21.5 514.7C43 516.3 86 519.7 128.8 516.7C171.7 513.7 214.3 504.3 257.2 505.2C300 506 343 517 385.8 516.8C428.7 516.7 471.3 505.3 514.2 497.5C557 489.7 600 485.3 642.8 488.7C685.7 492 728.3 503 771.2 504.5C814 506 857 498 878.5 494L900 490L900 601L878.5 601C857 601 814 601 771.2 601C728.3 601 685.7 601 642.8 601C600 601 557 601 514.2 601C471.3 601 428.7 601 385.8 601C343 601 300 601 257.2 601C214.3 601 171.7 601 128.8 601C86 601 43 601 21.5 601L0 601Z" fill="#3b089c"></path>
    <path d="M0 528L21.5 527.7C43 527.3 86 526.7 128.8 532.3C171.7 538 214.3 550 257.2 551.5C300 553 343 544 385.8 543.7C428.7 543.3 471.3 551.7 514.2 556.7C557 561.7 600 563.3 642.8 558.7C685.7 554 728.3 543 771.2 539.3C814 535.7 857 539.3 878.5 541.2L900 543L900 601L878.5 601C857 601 814 601 771.2 601C728.3 601 685.7 601 642.8 601C600 601 557 601 514.2 601C471.3 601 428.7 601 385.8 601C343 601 300 601 257.2 601C214.3 601 171.7 601 128.8 601C86 601 43 601 21.5 601L0 601Z" fill="#00008b"></path>
</svg>