<svg id="visual" viewBox="0 0 900 600" width="900" height="600" xmlns="http://www.w3.org/2000/svg" xmlns:xlink="http://www.w3.org/1999/xlink" version="1.1">
    <path d="M0 175L21.5 183.7C43 192.3 86 209.7 128.8 216.7C171.7 223.7 214.3 220.3 257.2 223.2C300 226 343 235 385.8 229C428.7 223 471.3 202 514.2 193C557 184 600 187 642.8 186C685.7 185 728.3 180 771.2 174C814 168 857 161 878.5 157.5L900 154L900 0L878.5 0C857 0 814 0 771.2 0C728.3 0 685.7 0 642.8 0C600 0 557 0 514.2 0C471.3 0 428.7 0 385.8 0C343 0 300 0 257.2 0C214.3 0 171.7 0 128.8 0C86 0 43 0 21.5 0L0 0Z" fill="#00008b"></path>
    <path d="M0 189L21.5 183.8C43 178.7 86 168.3 128.8 165C171.7 161.7 214.3 165.3 257.2 171.2C300 177 343 185 385.8 181C428.7 177 471.3 161 514.2 155.2C557 149.3 600 153.7 642.8 162.2C685.7 170.7 728.3 183.3 771.2 179.3C814 175.3 857 154.7 878.5 144.3L900 134L900 0L878.5 0C857 0 814 0 771.2 0C728.3 0 685.7 0 642.8 0C600 0 557 0 514.2 0C471.3 0 428.7 0 385.8 0C343 0 300 0 257.2 0C214.3 0 171.7 0 128.8 0C86 0 43 0 21.5 0L0 0Z" fill="#3b089c"></path>
    <path d="M0 123L21.5 118.2C43 113.3 86 103.7 128.8 101.3C171.7 99 214.3 104 257.2 114.7C300 125.3 343 141.7 385.8 141.2C428.7 140.7 471.3 123.3 514.2 123C557 122.7 600 139.3 642.8 137.8C685.7 136.3 728.3 116.7 771.2 111.2C814 105.7 857 114.3 878.5 118.7L900 123L900 0L878.5 0C857 0 814 0 771.2 0C728.3 0 685.7 0 642.8 0C600 0 557 0 514.2 0C471.3 0 428.7 0 385.8 0C343 0 300 0 257.2 0C214.3 0 171.7 0 128.8 0C86 0 43 0 21.5 0L0 0Z" fill="#5d16ac"></path>
    <path d="M0 57L21.5 57.8C43 58.7 86 60.3 128.8 65.2C171.7 70 214.3 78 257.2 80.2C300 82.3 343 78.7 385.8 81.7C428.7 84.7 471.3 94.3 514.2 94C557 93.7 600 83.3 642.8 82.5C685.7 81.7 728.3 90.3 771.2 89.8C814 89.3 857 79.7 878.5 74.8L900 70L900 0L878.5 0C857 0 814 0 771.2 0C728.3 0 685.7 0 642.8 0C600 0 557 0 514.2 0C471.3 0 428.7 0 385.8 0C343 0 300 0 257.2 0C214.3 0 171.7 0 128.8 0C86 0 43 0 21.5 0L0 0Z" fill="#7b24bc"></path>
    <path d="M0 35L21.5 38.7C43 42.3 86 49.7 128.8 52.8C171.7 56 214.3 55 257.2 54.5C300 54 343 54 385.8 51.8C428.7 49.7 471.3 45.3 514.2 47.8C557 50.3 600 59.7 642.8 59.3C685.7 59 728.3 49 771.2 49.2C814 49.3 857 59.7 878.5 64.8L900 70L900 0L878.5 0C857 0 814 0 771.2 0C728.3 0 685.7 0 642.8 0C600 0 557 0 514.2 0C471.3 0 428.7 0 385.8 0C343 0 300 0 257.2 0C214.3 0 171.7 0 128.8 0C86 0 43 0 21.5 0L0 0Z" fill="#9932cc"></path>
</svg>